<svg width="835" height="843" viewBox="0 0 835 843" fill="none" xmlns="http://www.w3.org/2000/svg">
<g filter="url(#filter0_d)">
<path d="M563.032 230.781L754.228 230.781L754.228 421.832L563.032 421.832L563.032 230.781Z" fill="#F9E050"/>
<path d="M281.466 703.18L472.662 703.18L472.662 842.904L281.466 842.904L281.466 703.18Z" fill="#F4F464"/>
<path d="M422.248 562.507L613.444 562.507L613.444 753.557L422.248 753.557L422.248 562.507ZM-1.29987e-06 562.507L140.781 562.507L140.781 703.181L-3.42753e-07 703.181L-1.29987e-06 562.507ZM281.467 422.023L422.248 422.023L422.248 562.697L281.467 562.697L281.467 422.023Z" fill="#F4F464"/>
<path d="M563.031 90.4857L754.227 90.4857L754.227 281.536L563.031 281.536L563.031 90.4857Z" fill="#F9B038"/>
<path d="M512.707 -0.000549316L754.128 -0.000550956L754.128 140.674L512.707 140.674L512.707 -0.000549316Z" fill="#F6842D"/>
<path d="M140.783 -0.000366211L281.564 -0.000367167L281.564 140.674L140.783 140.674L140.783 -0.000366211Z" fill="#F9E050"/>
<path d="M563.031 652.803L754.227 652.803L754.227 842.904L563.031 842.904L563.031 652.803Z" fill="#F6842D"/>
<path d="M281.465 140.768L422.246 140.768L422.246 281.442L281.465 281.442L281.465 140.768Z" fill="#F4F464"/>
<path d="M702.953 512.129L894.149 512.129L894.149 703.179L702.953 703.179L702.953 512.129Z" fill="#F4AC2B"/>
<path d="M702.953 371.742L894.149 371.742L894.149 562.793L702.953 562.793L702.953 371.742Z" fill="#F6842D"/>
<path d="M702.953 230.781L894.149 230.781L894.149 421.832L702.953 421.832L702.953 230.781Z" fill="#F4AC2B"/>
<path d="M702.953 90.4865L894.149 90.4864L894.149 281.537L702.953 281.537L702.953 90.4865Z" fill="#F6842D"/>
<path d="M703.904 842.904L703.904 703.181L843.733 703.181L843.733 140.674L702.952 140.674L702.952 -0.000183105L1080.3 -0.000185669C1137 -0.000186054 1186.08 6.46331 1227.36 19.4852C1268.64 32.317 1302.51 54.9388 1329.14 87.2559C1355.78 119.573 1375.75 163.296 1388.69 218.425C1401.63 273.364 1408 343.226 1408 428.201C1408 513.936 1402.01 583.513 1389.93 636.741C1377.75 690.919 1358.73 733.027 1332.85 762.967C1307.21 794.005 1272.32 816.05 1233.26 825.89C1192.83 837.296 1143.84 843 1086.49 843L843.638 843L703.904 842.904ZM990.507 727.609L1081.54 727.609C1112.93 727.609 1140.13 723.997 1162.77 716.773C1186.43 710.121 1206.49 694.408 1218.61 673.05C1233.26 651.188 1243.72 620.487 1250.19 580.851C1257.52 541.215 1261.13 488.653 1261.13 423.068C1261.13 357.674 1257.33 304.731 1250.1 264.334C1243.72 224.698 1233.26 193.617 1218.71 170.995C1205.26 150.106 1185.15 134.364 1161.63 126.322C1138.8 119.003 1112.17 115.391 1081.44 115.391L990.507 115.391L990.507 727.609Z" fill="#F14D34"/>
<path d="M563.03 562.505L703.811 562.505L703.811 703.179L563.03 703.179L563.03 562.505Z" fill="#F9E050"/>
<path d="M422.248 6.10352e-05L563.029 6.00788e-05L563.029 140.674L422.248 140.674L422.248 6.10352e-05Z" fill="#F9B038"/>
<path d="M422.248 703.18L563.029 703.18L563.029 842.904L422.248 842.904L422.248 703.18Z" fill="#F9E050"/>
</g>
<defs>
<filter id="filter0_d" x="-22.1411" y="-0.000488281" width="1452.28" height="922.339" filterUnits="userSpaceOnUse" color-interpolation-filters="sRGB">
<feFlood flood-opacity="0" result="BackgroundImageFix"/>
<feColorMatrix in="SourceAlpha" type="matrix" values="0 0 0 0 0 0 0 0 0 0 0 0 0 0 0 0 0 0 127 0"/>
<feOffset dy="57.1978"/>
<feGaussianBlur stdDeviation="11.0705"/>
<feColorMatrix type="matrix" values="0 0 0 0 0 0 0 0 0 0.0495833 0 0 0 0 0.145833 0 0 0 0.25 0"/>
<feBlend mode="normal" in2="BackgroundImageFix" result="effect1_dropShadow"/>
<feBlend mode="normal" in="SourceGraphic" in2="effect1_dropShadow" result="shape"/>
</filter>
</defs>
</svg>
